<?xml version="1.0" encoding="UTF-8" standalone="no"?>
<!DOCTYPE svg PUBLIC "-//W3C//DTD SVG 1.1//EN"
 "http://www.w3.org/Graphics/SVG/1.1/DTD/svg11.dtd">
<!-- Generated by graphviz version 2.40.1 (20161225.0304)
 -->
<!-- Title: state transitions Pages: 1 -->
<svg width="341pt" height="450pt"
 viewBox="0.00 0.00 340.63 450.00" xmlns="http://www.w3.org/2000/svg" xmlns:xlink="http://www.w3.org/1999/xlink">
<g id="graph0" class="graph" transform="scale(1 1) rotate(0) translate(4 446)">
<title>state transitions</title>
<!-- initial -->
<g id="node1" class="node state initial">
<title>initial</title>
<ellipse fill="#3397da" stroke="#3397da" stroke-width="2" cx="118.0596" cy="-436.5" rx="5.5" ry="5.5"/>
</g>
<!-- consigned -->
<g id="node2" class="node state regular">
<title>consigned</title>
<polygon fill="#000000" fill-opacity="0.003922" stroke="transparent" stroke-width="2" points="156.0596,-403 80.0596,-403 80.0596,-367 156.0596,-367 156.0596,-403"/>
<text text-anchor="start" x="90.7158" y="-381.2" font-family="Helvetica,sans-Serif" font-size="12.00" fill="#000000">consigned</text>
<path fill="#000" fill-opacity="0.1" d="M92.3929,-368C92.3929,-368 143.7262,-368 143.7262,-368 149.3929,-368 155.0596,-373.6667 155.0596,-379.3333 155.0596,-379.3333 155.0596,-390.6667 155.0596,-390.6667 155.0596,-396.3333 149.3929,-402 143.7262,-402 143.7262,-402 92.3929,-402 92.3929,-402 86.7262,-402 81.0596,-396.3333 81.0596,-390.6667 81.0596,-390.6667 81.0596,-379.3333 81.0596,-379.3333 81.0596,-373.6667 86.7262,-368 92.3929,-368"/>
</g>
<!-- initial&#45;&gt;consigned -->
<g id="edge1" class="edge transition">
<title>initial&#45;&gt;consigned</title>
<path fill="none" stroke="#3397da" d="M118.0596,-430.9886C118.0596,-426.6293 118.0596,-420.1793 118.0596,-413.4801"/>
<polygon fill="#3397da" stroke="#3397da" points="121.5597,-413.0122 118.0596,-403.0122 114.5597,-413.0122 121.5597,-413.0122"/>
<text text-anchor="start" x="118.0596" y="-414" font-family="Helvetica,sans-Serif" font-size="10.00" fill="#3397da"> &#160;&#160; house or master bill issued &#160;&#160;</text>
</g>
<!-- atDepot -->
<g id="node3" class="node state regular">
<title>atDepot</title>
<polygon fill="#000000" fill-opacity="0.003922" stroke="transparent" stroke-width="2" points="150.0596,-339 86.0596,-339 86.0596,-303 150.0596,-303 150.0596,-339"/>
<text text-anchor="start" x="97.0518" y="-317.2" font-family="Helvetica,sans-Serif" font-size="12.00" fill="#000000">atDepot</text>
<path fill="#000" fill-opacity="0.1" d="M98.3929,-304C98.3929,-304 137.7262,-304 137.7262,-304 143.3929,-304 149.0596,-309.6667 149.0596,-315.3333 149.0596,-315.3333 149.0596,-326.6667 149.0596,-326.6667 149.0596,-332.3333 143.3929,-338 137.7262,-338 137.7262,-338 98.3929,-338 98.3929,-338 92.7262,-338 87.0596,-332.3333 87.0596,-326.6667 87.0596,-326.6667 87.0596,-315.3333 87.0596,-315.3333 87.0596,-309.6667 92.7262,-304 98.3929,-304"/>
</g>
<!-- consigned&#45;&gt;atDepot -->
<g id="edge2" class="edge transition">
<title>consigned&#45;&gt;atDepot</title>
<path fill="none" stroke="#B49F29" d="M118.0596,-366.8314C118.0596,-361.4728 118.0596,-355.4735 118.0596,-349.6262"/>
<polygon fill="#B49F29" stroke="#B49F29" points="121.5597,-349.4363 118.0596,-339.4363 114.5597,-349.4363 121.5597,-349.4363"/>
<text text-anchor="start" x="118.0596" y="-350" font-family="Helvetica,sans-Serif" font-size="10.00" fill="#B49F29"> &#160;&#160; depot receival &#160;&#160;</text>
</g>
<!-- underbond -->
<g id="node4" class="node state regular">
<title>underbond</title>
<polygon fill="#000000" fill-opacity="0.003922" stroke="transparent" stroke-width="2" points="100.5596,-275 21.5596,-275 21.5596,-239 100.5596,-239 100.5596,-275"/>
<text text-anchor="start" x="32.879" y="-253.2" font-family="Helvetica,sans-Serif" font-size="12.00" fill="#000000">underbond</text>
<path fill="#000" fill-opacity="0.1" d="M33.8929,-240C33.8929,-240 88.2262,-240 88.2262,-240 93.8929,-240 99.5596,-245.6667 99.5596,-251.3333 99.5596,-251.3333 99.5596,-262.6667 99.5596,-262.6667 99.5596,-268.3333 93.8929,-274 88.2262,-274 88.2262,-274 33.8929,-274 33.8929,-274 28.2262,-274 22.5596,-268.3333 22.5596,-262.6667 22.5596,-262.6667 22.5596,-251.3333 22.5596,-251.3333 22.5596,-245.6667 28.2262,-240 33.8929,-240"/>
</g>
<!-- atDepot&#45;&gt;underbond -->
<g id="edge3" class="edge transition">
<title>atDepot&#45;&gt;underbond</title>
<path fill="none" stroke="#B49F29" d="M86.0414,-318.162C55.7571,-314.7359 13.4651,-307.7728 3.2616,-295 -3.7763,-286.1899 2.1245,-278.7303 12.4193,-272.8159"/>
<polygon fill="#B49F29" stroke="#B49F29" points="14.0018,-275.9382 21.4544,-268.4076 10.9323,-269.6471 14.0018,-275.9382"/>
<text text-anchor="start" x="4.0596" y="-286" font-family="Helvetica,sans-Serif" font-size="10.00" fill="#B49F29"> &#160;&#160; depot transfer &#160;&#160;</text>
</g>
<!-- consolidated -->
<g id="node5" class="node state regular">
<title>consolidated</title>
<polygon fill="#000000" fill-opacity="0.003922" stroke="transparent" stroke-width="2" points="276.5596,-275 187.5596,-275 187.5596,-239 276.5596,-239 276.5596,-275"/>
<text text-anchor="start" x="198.8816" y="-253.2" font-family="Helvetica,sans-Serif" font-size="12.00" fill="#000000">consolidated</text>
<path fill="#000" fill-opacity="0.1" d="M199.8929,-240C199.8929,-240 264.2262,-240 264.2262,-240 269.8929,-240 275.5596,-245.6667 275.5596,-251.3333 275.5596,-251.3333 275.5596,-262.6667 275.5596,-262.6667 275.5596,-268.3333 269.8929,-274 264.2262,-274 264.2262,-274 199.8929,-274 199.8929,-274 194.2262,-274 188.5596,-268.3333 188.5596,-262.6667 188.5596,-262.6667 188.5596,-251.3333 188.5596,-251.3333 188.5596,-245.6667 194.2262,-240 199.8929,-240"/>
</g>
<!-- atDepot&#45;&gt;consolidated -->
<g id="edge5" class="edge transition">
<title>atDepot&#45;&gt;consolidated</title>
<path fill="none" stroke="#B49F29" d="M150.1915,-313.5296C164.3128,-309.3801 180.6877,-303.3372 194.0596,-295 199.6708,-291.5015 205.0877,-287.0274 209.9878,-282.3862"/>
<polygon fill="#B49F29" stroke="#B49F29" points="212.6767,-284.6446 217.2161,-275.0715 207.6976,-279.7243 212.6767,-284.6446"/>
<text text-anchor="start" x="210.0596" y="-286" font-family="Helvetica,sans-Serif" font-size="10.00" fill="#B49F29"> &#160;&#160; consolidation notice &#160;&#160;</text>
</g>
<!-- underbond&#45;&gt;atDepot -->
<g id="edge4" class="edge transition">
<title>underbond&#45;&gt;atDepot</title>
<path fill="none" stroke="#B49F29" d="M84.0682,-275.0625C86.8704,-277.6145 89.6062,-280.294 92.0596,-283 95.2257,-286.4922 98.3128,-290.3918 101.1892,-294.3258"/>
<polygon fill="#B49F29" stroke="#B49F29" points="98.5242,-296.6249 107.0986,-302.8483 104.2767,-292.6362 98.5242,-296.6249"/>
<text text-anchor="start" x="102.0596" y="-286" font-family="Helvetica,sans-Serif" font-size="10.00" fill="#B49F29"> &#160;&#160; depot release &#160;&#160;</text>
</g>
<!-- atPort -->
<g id="node6" class="node state regular">
<title>atPort</title>
<polygon fill="#000000" fill-opacity="0.003922" stroke="transparent" stroke-width="2" points="260.0596,-211 204.0596,-211 204.0596,-175 260.0596,-175 260.0596,-211"/>
<text text-anchor="start" x="216.0552" y="-189.2" font-family="Helvetica,sans-Serif" font-size="12.00" fill="#000000">atPort</text>
<path fill="#000" fill-opacity="0.1" d="M216.3929,-176C216.3929,-176 247.7262,-176 247.7262,-176 253.3929,-176 259.0596,-181.6667 259.0596,-187.3333 259.0596,-187.3333 259.0596,-198.6667 259.0596,-198.6667 259.0596,-204.3333 253.3929,-210 247.7262,-210 247.7262,-210 216.3929,-210 216.3929,-210 210.7262,-210 205.0596,-204.3333 205.0596,-198.6667 205.0596,-198.6667 205.0596,-187.3333 205.0596,-187.3333 205.0596,-181.6667 210.7262,-176 216.3929,-176"/>
</g>
<!-- consolidated&#45;&gt;atPort -->
<g id="edge6" class="edge transition">
<title>consolidated&#45;&gt;atPort</title>
<path fill="none" stroke="#B49F29" d="M232.0596,-238.8314C232.0596,-233.4728 232.0596,-227.4735 232.0596,-221.6262"/>
<polygon fill="#B49F29" stroke="#B49F29" points="235.5597,-221.4363 232.0596,-211.4363 228.5597,-221.4363 235.5597,-221.4363"/>
<text text-anchor="start" x="232.0596" y="-222" font-family="Helvetica,sans-Serif" font-size="10.00" fill="#B49F29"> &#160;&#160; terminal receival &#160;&#160;</text>
</g>
<!-- loading -->
<g id="node7" class="node state regular">
<title>loading</title>
<polygon fill="#000000" fill-opacity="0.003922" stroke="transparent" stroke-width="2" points="262.0596,-147 202.0596,-147 202.0596,-111 262.0596,-111 262.0596,-147"/>
<text text-anchor="start" x="212.7198" y="-125.2" font-family="Helvetica,sans-Serif" font-size="12.00" fill="#000000">loading</text>
<path fill="#000" fill-opacity="0.1" d="M214.3929,-112C214.3929,-112 249.7262,-112 249.7262,-112 255.3929,-112 261.0596,-117.6667 261.0596,-123.3333 261.0596,-123.3333 261.0596,-134.6667 261.0596,-134.6667 261.0596,-140.3333 255.3929,-146 249.7262,-146 249.7262,-146 214.3929,-146 214.3929,-146 208.7262,-146 203.0596,-140.3333 203.0596,-134.6667 203.0596,-134.6667 203.0596,-123.3333 203.0596,-123.3333 203.0596,-117.6667 208.7262,-112 214.3929,-112"/>
</g>
<!-- atPort&#45;&gt;loading -->
<g id="edge7" class="edge transition">
<title>atPort&#45;&gt;loading</title>
<path fill="none" stroke="#B49F29" d="M232.0596,-174.8314C232.0596,-169.4728 232.0596,-163.4735 232.0596,-157.6262"/>
<polygon fill="#B49F29" stroke="#B49F29" points="235.5597,-157.4363 232.0596,-147.4363 228.5597,-157.4363 235.5597,-157.4363"/>
<text text-anchor="start" x="232.0596" y="-158" font-family="Helvetica,sans-Serif" font-size="10.00" fill="#B49F29"> &#160;&#160; authority to load &#160;&#160;</text>
</g>
<!-- exported -->
<g id="node8" class="node state regular">
<title>exported</title>
<polygon fill="#000000" fill-opacity="0.003922" stroke="transparent" stroke-width="2" points="266.0596,-83 198.0596,-83 198.0596,-47 266.0596,-47 266.0596,-83"/>
<text text-anchor="start" x="208.7178" y="-61.2" font-family="Helvetica,sans-Serif" font-size="12.00" fill="#000000">exported</text>
<path fill="#000" fill-opacity="0.1" d="M210.3929,-48C210.3929,-48 253.7262,-48 253.7262,-48 259.3929,-48 265.0596,-53.6667 265.0596,-59.3333 265.0596,-59.3333 265.0596,-70.6667 265.0596,-70.6667 265.0596,-76.3333 259.3929,-82 253.7262,-82 253.7262,-82 210.3929,-82 210.3929,-82 204.7262,-82 199.0596,-76.3333 199.0596,-70.6667 199.0596,-70.6667 199.0596,-59.3333 199.0596,-59.3333 199.0596,-53.6667 204.7262,-48 210.3929,-48"/>
</g>
<!-- loading&#45;&gt;exported -->
<g id="edge8" class="edge transition">
<title>loading&#45;&gt;exported</title>
<path fill="none" stroke="#B49F29" d="M232.0596,-110.8314C232.0596,-105.4728 232.0596,-99.4735 232.0596,-93.6262"/>
<polygon fill="#B49F29" stroke="#B49F29" points="235.5597,-93.4363 232.0596,-83.4363 228.5597,-93.4363 235.5597,-93.4363"/>
<text text-anchor="start" x="232.0596" y="-94" font-family="Helvetica,sans-Serif" font-size="10.00" fill="#B49F29"> &#160;&#160; manifest &#160;&#160;</text>
</g>
<!-- final -->
<g id="node9" class="node state final">
<title>final</title>
<ellipse fill="#ff3986" stroke="#ff3986" stroke-width="2" cx="232.0596" cy="-9.5" rx="5.5" ry="5.5"/>
<ellipse fill="none" stroke="#ff3986" stroke-width="2" cx="232.0596" cy="-9.5" rx="9.5" ry="9.5"/>
</g>
<!-- exported&#45;&gt;final -->
<g id="edge9" class="edge transition">
<title>exported&#45;&gt;final</title>
<path fill="none" stroke="#ff3986" d="M232.0596,-46.8272C232.0596,-41.202 232.0596,-34.9783 232.0596,-29.2515"/>
<polygon fill="#ff3986" stroke="#ff3986" points="235.5597,-29.1396 232.0596,-19.1396 228.5597,-29.1397 235.5597,-29.1396"/>
<text text-anchor="middle" x="233.4491" y="-30" font-family="Helvetica,sans-Serif" font-size="10.00" fill="#ff3986"> </text>
</g>
</g>
</svg>
