<svg xmlns="http://www.w3.org/2000/svg" viewBox="0 0 323.98 322"><g class="graph" transform="translate(4 318)"><g class="node state initial"><circle cx="118.39" cy="-308.5" r="5.5" fill="#2ecb70" stroke="#2ecb70" stroke-width="2"/></g><g class="node state regular"><path fill="#000000" fill-opacity=".004" stroke="transparent" stroke-width="2" d="M182.39-275h-128v36h128v-36z"/><text x="65.049" y="-253.2" fill="#000000" font-family="Helvetica,sans-Serif" font-size="12">Declaration Created</text><path fill="none" stroke="#000000" stroke-width="2" d="M66.723-240h103.333c5.667 0 11.334-5.667 11.334-11.333v-11.334c0-5.666-5.667-11.333-11.334-11.333H66.723c-5.667 0-11.333 5.667-11.333 11.333v11.334c0 5.666 5.666 11.333 11.333 11.333"/></g><g class="edge transition"><path fill="none" stroke="#23cb70" d="M118.39-302.989v17.509"/><path fill="#23cb70" stroke="#23cb70" d="M121.89-285.012l-3.5 10-3.5-10h7z"/><text x="119.779" y="-286" fill="#23cb70" font-family="Helvetica,sans-Serif" font-size="10" text-anchor="middle"></text></g><g class="node state regular"><path fill="#000000" fill-opacity=".004" stroke="transparent" stroke-width="2" d="M93.89-147h-75v36h75v-36z"/><text x="30.218" y="-125.2" fill="#000000" font-family="Helvetica,sans-Serif" font-size="12">Cancelled</text><path fill="none" stroke="#000000" stroke-width="2" d="M31.223-112h50.333c5.667 0 11.334-5.667 11.334-11.333v-11.334c0-5.666-5.667-11.333-11.334-11.333H31.223c-5.667 0-11.333 5.667-11.333 11.333v11.334c0 5.666 5.666 11.333 11.333 11.333"/></g><g class="edge transition"><path fill="none" stroke="#B49F29" d="M54.146-245.045C35.461-238.263 17.093-227.64 5.922-211c-8.919 13.284-6.464 21.364 0 36 3.476 7.873 9.04 14.98 15.226 21.122"/><path fill="#B49F29" stroke="#B49F29" d="M23.545-156.43l5.064 9.307-9.762-4.117 4.698-5.19z"/><text x="6.39" y="-190" fill="#B49F29" font-family="Helvetica,sans-Serif" font-size="10">Cancel declaration</text></g><g class="node state regular"><path fill="#000000" fill-opacity=".004" stroke="transparent" stroke-width="2" d="M172.39-211h-56v36h56v-36z"/><text x="127.053" y="-189.2" fill="#000000" font-family="Helvetica,sans-Serif" font-size="12">Invalid</text><path fill="none" stroke="#000000" stroke-width="2" d="M128.723-176h31.333c5.667 0 11.334-5.667 11.334-11.333v-11.334c0-5.666-5.667-11.333-11.334-11.333h-31.333c-5.667 0-11.333 5.667-11.333 11.333v11.334c0 5.666 5.666 11.333 11.333 11.333"/></g><g class="edge transition"><path fill="none" stroke="#B49F29" d="M115.398-238.649c-.234 4.822-.001 10.038 3.112 18.168"/><path fill="#B49F29" stroke="#B49F29" d="M121.737-221.84l.936 10.554-7.313-7.666 6.377-2.887z"/><text x="117.39" y="-222" fill="#B49F29" font-family="Helvetica,sans-Serif" font-size="10">Validation falied</text></g><g class="node state regular"><path fill="#000000" fill-opacity=".004" stroke="transparent" stroke-width="2" d="M172.39-147h-56v36h56v-36z"/><text x="131.055" y="-125.2" fill="#000000" font-family="Helvetica,sans-Serif" font-size="12">Valid</text><path fill="none" stroke="#000000" stroke-width="2" d="M128.723-112h31.333c5.667 0 11.334-5.667 11.334-11.333v-11.334c0-5.666-5.667-11.333-11.334-11.333h-31.333c-5.667 0-11.333 5.667-11.333 11.333v11.334c0 5.666 5.666 11.333 11.333 11.333"/></g><g class="edge transition"><path fill="none" stroke="#B49F29" d="M182.793-243.564c10.987 3.565 20.02 7.779 23.597 12.564 20.22 27.058 18.704 47.874 0 76-5.672 8.529-14.74 14.265-24.21 18.122"/><path fill="#B49F29" stroke="#B49F29" d="M183.282-133.556l-10.594-.058 8.318-6.562 2.276 6.62z"/><text x="220.39" y="-190" fill="#B49F29" font-family="Helvetica,sans-Serif" font-size="10">Validation passed</text></g><g class="node state final"><circle cx="86.39" cy="-9.5" r="5.5" fill="#ff3986" stroke="#ff3986" stroke-width="2"/><circle cx="86.39" cy="-9.5" r="9.5" fill="none" stroke="#ff3986" stroke-width="2"/></g><g class="edge transition"><path fill="none" stroke="#ff3986" d="M60.946-110.85l20.661 82.3"/><path fill="#ff3986" stroke="#ff3986" d="M85.023-29.32l-.96 10.552-5.83-8.847 6.79-1.705z"/><text x="78.779" y="-62" fill="#ff3986" font-family="Helvetica,sans-Serif" font-size="10" text-anchor="middle"></text></g><g class="edge transition"><path fill="none" stroke="#B49F29" d="M116.336-181.685A2296.52 2296.52 0 0199.39-175c-9.356 3.642-13.481 1.492-21.126 8-3.62 3.08-6.774 6.92-9.476 10.963"/><path fill="#B49F29" stroke="#B49F29" d="M71.635-153.97l-8.043 6.897 1.987-10.407 6.056 3.51z"/><text x="78.39" y="-158" fill="#B49F29" font-family="Helvetica,sans-Serif" font-size="10">Cancelled</text></g><g class="edge transition"><path fill="none" stroke="#B49F29" d="M144.39-174.831v17.205"/><path fill="#B49F29" stroke="#B49F29" d="M147.89-157.436l-3.5 10-3.5-10h7z"/><text x="144.39" y="-158" fill="#B49F29" font-family="Helvetica,sans-Serif" font-size="10">Corrected</text></g><g class="node state regular"><path fill="#000000" fill-opacity=".004" stroke="transparent" stroke-width="2" d="M178.39-83h-80v36h80v-36z"/><text x="109.385" y="-61.2" fill="#000000" font-family="Helvetica,sans-Serif" font-size="12">Completed</text><path fill="none" stroke="#000000" stroke-width="2" d="M110.723-48h55.333c5.667 0 11.334-5.667 11.334-11.333v-11.334c0-5.666-5.667-11.333-11.334-11.333h-55.333c-5.667 0-11.333 5.667-11.333 11.333v11.334c0 5.666 5.666 11.333 11.333 11.333"/></g><g class="edge transition"><path fill="none" stroke="#B49F29" d="M142.686-110.831l-1.613 17.205"/><path fill="#B49F29" stroke="#B49F29" d="M144.536-93.066l-4.418 9.63-2.551-10.283 6.97.653z"/><text x="141.39" y="-94" fill="#B49F29" font-family="Helvetica,sans-Serif" font-size="10">Finished</text></g><g class="edge transition"><path fill="none" stroke="#ff3986" d="M121.363-46.827L99.848-23.865"/><path fill="#ff3986" stroke="#ff3986" d="M102.32-21.384l-9.39 4.904 4.283-9.69 5.108 4.786z"/><text x="114.779" y="-30" fill="#ff3986" font-family="Helvetica,sans-Serif" font-size="10" text-anchor="middle"></text></g></g></svg>