<svg xmlns="http://www.w3.org/2000/svg" viewBox="0 0 630.38 160"><g class="graph" transform="translate(4 156)"><g class="node state initial"><circle cx="5.5" cy="-76" r="5.5" fill="#2ecb70" stroke="#2ecb70" stroke-width="2"/></g><g class="node state regular"><path fill="#000000" fill-opacity=".004" stroke="transparent" stroke-width="2" d="M200.24-127h-86v36h86v-36z"/><text x="125.231" y="-105.2" fill="#000000" font-family="Helvetica,sans-Serif" font-size="12">Not in effect</text><path fill="none" stroke="#000000" stroke-width="2" d="M126.573-92h61.334c5.666 0 11.333-5.667 11.333-11.333v-11.334c0-5.666-5.667-11.333-11.333-11.333h-61.334c-5.666 0-11.333 5.667-11.333 11.333v11.334c0 5.666 5.667 11.333 11.333 11.333"/></g><g class="edge transition"><path fill="none" stroke="#23cb70" d="M10.9-77.174L104.36-97.5"/><path fill="#23cb70" stroke="#23cb70" d="M103.646-100.926l10.516 1.294-9.028 5.546-1.488-6.84z"/><text x="19" y="-100" fill="#23cb70" font-family="Helvetica,sans-Serif" font-size="10">Bridging invoice</text></g><g class="node state regular"><path fill="#000000" fill-opacity=".004" stroke="transparent" stroke-width="2" d="M398.026-94h-64v36h64v-36z"/><text x="344.683" y="-72.2" fill="#000000" font-family="Helvetica,sans-Serif" font-size="12">In effect</text><path fill="none" stroke="#000000" stroke-width="2" d="M346.36-59h39.333c5.666 0 11.333-5.667 11.333-11.333v-11.334c0-5.666-5.667-11.333-11.333-11.333h-39.334c-5.666 0-11.333 5.667-11.333 11.333v11.334c0 5.666 5.667 11.333 11.333 11.333"/></g><g class="edge transition"><path fill="none" stroke="#23cb70" d="M11.004-75.078c2.443.382 5.357.8 7.996 1.078 42.18 4.445 52.848 4.666 95.24 6 73.663 2.318 159.447-1.882 209.476-5.023"/><path fill="#23cb70" stroke="#23cb70" d="M323.628-76.525l10.204 2.85-9.754 4.136-.45-6.986z"/><text x="115.849" y="-71" fill="#23cb70" font-family="Helvetica,sans-Serif" font-size="10">Normal invoice</text></g><g class="edge transition"><path fill="none" stroke="#B49F29" d="M200.247-102.202l123.57 19.53"/><path fill="#B49F29" stroke="#B49F29" d="M324.651-86.083l9.331 5.018-10.424 1.896 1.093-6.914z"/><text x="208.24" y="-103" fill="#B49F29" font-family="Helvetica,sans-Serif" font-size="10">Normal invoice expires</text></g><g class="edge transition"><path fill="none" stroke="#B49F29" d="M351.039-94.1c-3.614-11.221 1.382-21.9 14.987-21.9 9.354 0 14.638 5.047 15.853 11.848"/><path fill="#B49F29" stroke="#B49F29" d="M385.359-103.763l-4.346 9.663-2.629-10.264 6.975.6z"/><text x="311.008" y="-119" fill="#B49F29" font-family="Helvetica,sans-Serif" font-size="10">Change in conditions</text></g><g class="node state regular"><path fill="#000000" fill-opacity=".004" stroke="transparent" stroke-width="2" d="M578.597-152h-63v36h63v-36z"/><text x="526.924" y="-130.2" fill="#000000" font-family="Helvetica,sans-Serif" font-size="12">Ceased</text><path fill="none" stroke="#000000" stroke-width="2" d="M527.93-117h38.334c5.666 0 11.333-5.667 11.333-11.333v-11.334c0-5.666-5.667-11.333-11.333-11.333H527.93c-5.666 0-11.333 5.667-11.333 11.333v11.334c0 5.666 5.667 11.333 11.333 11.333"/></g><g class="edge transition"><path fill="none" stroke="#B49F29" d="M398.206-90.066c2.631-1.03 5.261-2.022 7.82-2.934 32.952-11.744 71.088-22.672 99.395-30.289"/><path fill="#B49F29" stroke="#B49F29" d="M504.814-126.749l10.564.809-8.763 5.956-1.801-6.765z"/><text x="411.865" y="-124" fill="#B49F29" font-family="Helvetica,sans-Serif" font-size="10">Normal expirey</text></g><g class="node state regular"><path fill="#000000" fill-opacity=".004" stroke="transparent" stroke-width="2" d="M581.097-94h-68v36h68v-36z"/><text x="523.761" y="-72.2" fill="#000000" font-family="Helvetica,sans-Serif" font-size="12">Incorrect</text><path fill="none" stroke="#000000" stroke-width="2" d="M525.43-59h43.334c5.666 0 11.333-5.667 11.333-11.333v-11.334c0-5.666-5.667-11.333-11.333-11.333H525.43c-5.666 0-11.333 5.667-11.333 11.333v11.334c0 5.666 5.667 11.333 11.333 11.333"/></g><g class="edge transition"><path fill="none" stroke="#B49F29" d="M398.398-76h104.379"/><path fill="#B49F29" stroke="#B49F29" d="M502.851-79.5l10 3.5-10 3.5v-7z"/><text x="408.526" y="-79" fill="#B49F29" font-family="Helvetica,sans-Serif" font-size="10">Mistaken invoice</text></g><g class="node state regular"><path fill="#000000" fill-opacity=".004" stroke="transparent" stroke-width="2" d="M584.597-36h-75V0h75v-36z"/><text x="520.926" y="-14.2" fill="#000000" font-family="Helvetica,sans-Serif" font-size="12">Cancelled</text><path fill="none" stroke="#000000" stroke-width="2" d="M521.93-1h50.334c5.666 0 11.333-5.667 11.333-11.333v-11.334c0-5.666-5.667-11.333-11.333-11.333H521.93c-5.666 0-11.333 5.667-11.333 11.333v11.334C510.597-6.667 516.264-1 521.93-1"/></g><g class="edge transition"><path fill="none" stroke="#B49F29" d="M398.206-61.934c2.631 1.03 5.261 2.022 7.82 2.934 30.812 10.981 66.157 21.25 93.76 28.764"/><path fill="#B49F29" stroke="#B49F29" d="M500.839-33.578l8.745 5.982-10.567.777 1.822-6.759z"/><text x="406.026" y="-62" fill="#B49F29" font-family="Helvetica,sans-Serif" font-size="10">Compliance issue</text></g><g class="node state final"><circle cx="612.876" cy="-76" r="5.5" fill="#ff3986" stroke="#ff3986" stroke-width="2"/><circle cx="612.876" cy="-76" r="9.5" fill="none" stroke="#ff3986" stroke-width="2"/></g><g class="edge transition"><path fill="none" stroke="#ff3986" d="M571.705-115.762c4.381 3.469 8.838 7.147 12.892 10.762 4.977 4.437 10.146 9.565 14.683 14.264"/><path fill="#ff3986" stroke="#ff3986" d="M601.855-93.107l4.316 9.676-9.408-4.872 5.092-4.804z"/><text x="593.986" y="-100" fill="#ff3986" font-family="Helvetica,sans-Serif" font-size="10" text-anchor="middle"></text></g><g class="edge transition"><path fill="none" stroke="#ff3986" d="M581.143-76h11.904"/><path fill="#ff3986" stroke="#ff3986" d="M593.305-79.5l10 3.5-10 3.5v-7z"/><text x="593.986" y="-79" fill="#ff3986" font-family="Helvetica,sans-Serif" font-size="10" text-anchor="middle"></text></g><g class="edge transition"><path fill="none" stroke="#ff3986" d="M571.705-36.238c4.381-3.469 8.838-7.147 12.892-10.762 4.977-4.437 10.146-9.565 14.683-14.264"/><path fill="#ff3986" stroke="#ff3986" d="M596.763-63.697l9.408-4.872-4.316 9.676-5.092-4.804z"/><text x="593.986" y="-60" fill="#ff3986" font-family="Helvetica,sans-Serif" font-size="10" text-anchor="middle"></text></g></g></svg>