<svg xmlns="http://www.w3.org/2000/svg" viewBox="114.341 219.786 871.159 555.143"><rect width="1000%" height="1000%" x="-500%" y="-500%" fill="#EEEEEE"/><defs><linearGradient id="a" x1="0%" x2="50%" y1="0%" y2="50%"><stop offset="0%" stop-color="#3397DA"/><stop offset="100%" stop-color="#3397DA"/></linearGradient></defs><path fill="none" stroke="url(#a)" stroke-width="3" d="M217.285 442.214h191.8v170.357"/><defs><linearGradient id="b" x1="0%" x2="50%" y1="0%" y2="50%"><stop offset="0%" stop-color="#3397DA"/><stop offset="100%" stop-color="#3397DA"/></linearGradient></defs><path fill="none" stroke="url(#b)" stroke-width="3" d="M293.029 482.214V702.93h116.985"/><defs><linearGradient id="c" x1="0%" x2="50%" y1="0%" y2="50%"><stop offset="0%" stop-color="#3397DA"/><stop offset="100%" stop-color="#3397DA"/></linearGradient></defs><path fill="none" stroke="url(#c)" stroke-width="3" d="M578.857 255.286h-324.7v44.5"/><defs><linearGradient id="d" x1="0%" x2="50%" y1="0%" y2="50%"><stop offset="0%" stop-color="#3397DA"/><stop offset="100%" stop-color="#2ECB70"/></linearGradient></defs><path fill="none" stroke="url(#d)" stroke-width="3" d="M676.857 278.286H847.5v-5.5"/><defs><linearGradient id="e" x1="0%" x2="50%" y1="0%" y2="50%"><stop offset="0%" stop-color="#3397DA"/><stop offset="100%" stop-color="#3397DA"/></linearGradient></defs><path fill="none" stroke="url(#e)" stroke-width="3" d="M627.857 301.286v162h.6"/><defs><linearGradient id="f" x1="0%" x2="50%" y1="0%" y2="50%"><stop offset="0%" stop-color="#3397DA"/><stop offset="100%" stop-color="#3397DA"/></linearGradient></defs><path fill="none" stroke="url(#f)" stroke-width="3" d="M254.157 299.786v162.428h1"/><path fill="#FFFFFF" stroke="#3397DA" stroke-width="3" d="M134.341 239.786h239.633v120H134.341z"/><path fill="#3397da" stroke="#3397da" d="M135.34 264.786h239.633"/><path fill="none" stroke="#3397DA" stroke-width="3" d="M134.341 239.786h239.633v120H134.341z"/><text x="144.341" y="257.786" style="font:700 16px 'Lucida Console',monospace" fill="#000000">Order</text><text x="144.341" y="281.786" style="font:500 14px 'Lucida Console',monospace" fill="#000000">id:</text><text x="173.545" y="281.786" style="font:500 14px 'Lucida Console',monospace" fill="#C9A30B">Numeric</text><text x="144.341" y="295.786" style="font:500 14px 'Lucida Console',monospace" fill="#000000">pet:</text><text x="181.946" y="295.786" style="font:500 14px 'Lucida Console',monospace" fill="#3397DA">Pet</text><text x="144.341" y="309.786" style="font:500 14px 'Lucida Console',monospace" fill="#000000">quantity:</text><text x="223.953" y="309.786" style="font:500 14px 'Lucida Console',monospace" fill="#19BB98">Numeric</text><text x="144.341" y="323.786" style="font:500 14px 'Lucida Console',monospace" fill="#000000">shipDate:</text><text x="223.953" y="323.786" style="font:500 14px 'Lucida Console',monospace" fill="#19BB98">Date</text><text x="144.341" y="337.786" style="font:500 14px 'Lucida Console',monospace" fill="#000000">status:</text><text x="207.15" y="337.786" style="font:500 14px 'Lucida Console',monospace" fill="#19BB98">Code(OrderStatus)</text><text x="144.341" y="351.786" style="font:500 14px 'Lucida Console',monospace" fill="#000000">complete:</text><text x="223.953" y="351.786" style="font:500 14px 'Lucida Console',monospace" fill="#19BB98">Indicator</text><path fill="#FFFFFF" stroke="#3397DA" stroke-width="3" d="M529.857 232.286h196v92h-196z"/><path fill="#3397da" stroke="#3397da" d="M530.857 257.286h196"/><path fill="none" stroke="#3397DA" stroke-width="3" d="M529.857 232.286h196v92h-196z"/><text x="539.857" y="250.286" style="font:700 16px 'Lucida Console',monospace" fill="#000000">Customer</text><text x="539.857" y="274.286" style="font:500 14px 'Lucida Console',monospace" fill="#000000">id:</text><text x="569.061" y="274.286" style="font:500 14px 'Lucida Console',monospace" fill="#C9A30B">Numeric</text><text x="539.857" y="288.286" style="font:500 14px 'Lucida Console',monospace" fill="#000000">username:</text><text x="619.469" y="288.286" style="font:500 14px 'Lucida Console',monospace" fill="#3397DA">User</text><text x="539.857" y="302.286" style="font:500 14px 'Lucida Console',monospace" fill="#000000">address:</text><text x="611.068" y="302.286" style="font:500 14px 'Lucida Console',monospace" fill="#2ECB70">Address</text><text x="539.857" y="316.286" style="font:500 14px 'Lucida Console',monospace" fill="#000000">orders:</text><text x="602.667" y="316.286" style="font:500 14px 'Lucida Console',monospace" fill="#3397DA">Order[]</text><path fill="#FFFFFF" stroke="#2ECB70" stroke-width="3" d="M749.5 226.786h196v92h-196z"/><path fill="#2ecb70" stroke="#2ecb70" d="M750.5 251.786h196"/><path fill="none" stroke="#2ECB70" stroke-width="3" d="M749.5 226.786h196v92h-196z"/><text x="759.5" y="244.786" style="font:700 16px 'Lucida Console',monospace" fill="#000000">Address</text><text x="759.5" y="268.786" style="font:500 14px 'Lucida Console',monospace" fill="#000000">street:</text><text x="822.31" y="268.786" style="font:500 14px 'Lucida Console',monospace" fill="#19BB98">Text</text><text x="759.5" y="282.786" style="font:500 14px 'Lucida Console',monospace" fill="#000000">city:</text><text x="805.507" y="282.786" style="font:500 14px 'Lucida Console',monospace" fill="#19BB98">Text</text><text x="759.5" y="296.786" style="font:500 14px 'Lucida Console',monospace" fill="#000000">state:</text><text x="813.908" y="296.786" style="font:500 14px 'Lucida Console',monospace" fill="#19BB98">Text</text><text x="759.5" y="310.786" style="font:500 14px 'Lucida Console',monospace" fill="#000000">zip:</text><text x="797.105" y="310.786" style="font:500 14px 'Lucida Console',monospace" fill="#19BB98">Numeric</text><path fill="#FFFFFF" stroke="#3397DA" stroke-width="3" d="M316.014 670.929h188v64h-188z"/><path fill="#3397da" stroke="#3397da" d="M317.014 695.929h188"/><path fill="none" stroke="#3397DA" stroke-width="3" d="M316.014 670.929h188v64h-188z"/><text x="326.014" y="688.929" style="font:700 16px 'Lucida Console',monospace" fill="#000000">Category</text><text x="326.014" y="712.929" style="font:500 14px 'Lucida Console',monospace" fill="#000000">id:</text><text x="355.218" y="712.929" style="font:500 14px 'Lucida Console',monospace" fill="#C9A30B">Numeric</text><text x="326.014" y="726.929" style="font:500 14px 'Lucida Console',monospace" fill="#000000">name:</text><text x="372.021" y="726.929" style="font:500 14px 'Lucida Console',monospace" fill="#19BB98">Text</text><path fill="#FFFFFF" stroke="#3397DA" stroke-width="3" d="M522.457 389.286h212v148h-212z"/><path fill="#3397da" stroke="#3397da" d="M523.457 414.286h212"/><path fill="none" stroke="#3397DA" stroke-width="3" d="M522.457 389.286h212v148h-212z"/><text x="532.457" y="407.286" style="font:700 16px 'Lucida Console',monospace" fill="#000000">User</text><text x="532.457" y="431.286" style="font:500 14px 'Lucida Console',monospace" fill="#000000">id:</text><text x="561.661" y="431.286" style="font:500 14px 'Lucida Console',monospace" fill="#19BB98">Numeric</text><text x="532.457" y="445.286" style="font:500 14px 'Lucida Console',monospace" fill="#000000">username:</text><text x="612.069" y="445.286" style="font:500 14px 'Lucida Console',monospace" fill="#C9A30B">Text</text><text x="532.457" y="459.286" style="font:500 14px 'Lucida Console',monospace" fill="#000000">firstName:</text><text x="620.471" y="459.286" style="font:500 14px 'Lucida Console',monospace" fill="#19BB98">Text</text><text x="532.457" y="473.286" style="font:500 14px 'Lucida Console',monospace" fill="#000000">lastName:</text><text x="612.069" y="473.286" style="font:500 14px 'Lucida Console',monospace" fill="#19BB98">Text</text><text x="532.457" y="487.286" style="font:500 14px 'Lucida Console',monospace" fill="#000000">email:</text><text x="586.865" y="487.286" style="font:500 14px 'Lucida Console',monospace" fill="#19BB98">Text</text><text x="532.457" y="501.286" style="font:500 14px 'Lucida Console',monospace" fill="#000000">password:</text><text x="612.069" y="501.286" style="font:500 14px 'Lucida Console',monospace" fill="#19BB98">Text</text><text x="532.457" y="515.286" style="font:500 14px 'Lucida Console',monospace" fill="#000000">phone:</text><text x="586.865" y="515.286" style="font:500 14px 'Lucida Console',monospace" fill="#19BB98">Text</text><text x="532.457" y="529.286" style="font:500 14px 'Lucida Console',monospace" fill="#000000">userStatus:</text><text x="628.872" y="529.286" style="font:500 14px 'Lucida Console',monospace" fill="#19BB98">Numeric</text><path fill="#FFFFFF" stroke="#3397DA" stroke-width="3" d="M315.086 580.571h188v64h-188z"/><path fill="#3397da" stroke="#3397da" d="M316.086 605.571h188"/><path fill="none" stroke="#3397DA" stroke-width="3" d="M315.086 580.571h188v64h-188z"/><text x="325.086" y="598.571" style="font:700 16px 'Lucida Console',monospace" fill="#000000">Tag</text><text x="325.086" y="622.571" style="font:500 14px 'Lucida Console',monospace" fill="#000000">id:</text><text x="354.29" y="622.571" style="font:500 14px 'Lucida Console',monospace" fill="#C9A30B">Numeric</text><text x="325.086" y="636.571" style="font:500 14px 'Lucida Console',monospace" fill="#000000">name:</text><text x="371.092" y="636.571" style="font:500 14px 'Lucida Console',monospace" fill="#19BB98">Text</text><path fill="#FFFFFF" stroke="#3397DA" stroke-width="3" d="M141.541 402.214h227.231v120H141.541z"/><path fill="#3397da" stroke="#3397da" d="M142.541 427.214h227.232"/><path fill="none" stroke="#3397DA" stroke-width="3" d="M141.541 402.214h227.231v120H141.541z"/><text x="151.541" y="420.214" style="font:700 16px 'Lucida Console',monospace" fill="#000000">Pet</text><text x="151.541" y="444.214" style="font:500 14px 'Lucida Console',monospace" fill="#000000">id:</text><text x="180.745" y="444.214" style="font:500 14px 'Lucida Console',monospace" fill="#C9A30B">Numeric</text><text x="151.541" y="458.214" style="font:500 14px 'Lucida Console',monospace" fill="#000000">name:</text><text x="197.548" y="458.214" style="font:500 14px 'Lucida Console',monospace" fill="#19BB98">Text</text><text x="151.541" y="472.214" style="font:500 14px 'Lucida Console',monospace" fill="#000000">category:</text><text x="231.154" y="472.214" style="font:500 14px 'Lucida Console',monospace" fill="#3397DA">Category</text><text x="151.541" y="486.214" style="font:500 14px 'Lucida Console',monospace" fill="#000000">photoUrls:</text><text x="239.555" y="486.214" style="font:500 14px 'Lucida Console',monospace" fill="#19BB98">Text[]</text><text x="151.541" y="500.214" style="font:500 14px 'Lucida Console',monospace" fill="#000000">tags:</text><text x="197.548" y="500.214" style="font:500 14px 'Lucida Console',monospace" fill="#3397DA">Tag[]</text><text x="151.541" y="514.214" style="font:500 14px 'Lucida Console',monospace" fill="#000000">status:</text><text x="214.351" y="514.214" style="font:500 14px 'Lucida Console',monospace" fill="#19BB98">Code(SoldStatus)</text></svg>