<svg xmlns="http://www.w3.org/2000/svg" viewBox="-6.279 248.609 1755.572 823.759"><rect width="1000%" height="1000%" x="-500%" y="-500%" fill="#EEEEEE"/><defs><linearGradient id="a" x1="0%" x2="50%" y1="0%" y2="50%"><stop offset="0%" stop-color="#3397DA"/><stop offset="100%" stop-color="#3397DA"/></linearGradient></defs><path fill="none" stroke="url(#a)" stroke-width="3" d="M721.892 538.306v462.061h64.733"/><defs><linearGradient id="b" x1="0%" x2="50%" y1="0%" y2="50%"><stop offset="0%" stop-color="#3397DA"/><stop offset="100%" stop-color="#3397DA"/></linearGradient></defs><path fill="none" stroke="url(#b)" stroke-width="3" d="M543.466 484.02H137.072V873.38"/><defs><linearGradient id="c" x1="0%" x2="50%" y1="0%" y2="50%"><stop offset="0%" stop-color="#3397DA"/><stop offset="100%" stop-color="#2ECB70"/></linearGradient></defs><path fill="none" stroke="url(#c)" stroke-width="3" d="M989.53 511.163h427.719V381"/><defs><linearGradient id="d" x1="0%" x2="50%" y1="0%" y2="50%"><stop offset="0%" stop-color="#3397DA"/><stop offset="100%" stop-color="#2ECB70"/></linearGradient></defs><path fill="none" stroke="url(#d)" stroke-width="3" d="M632.679 511.163V739h-222.04"/><defs><linearGradient id="e" x1="0%" x2="50%" y1="0%" y2="50%"><stop offset="0%" stop-color="#3397DA"/><stop offset="100%" stop-color="#2ECB70"/></linearGradient></defs><path fill="none" stroke="url(#e)" stroke-width="3" d="M900.317 538.306h504.33V739"/><defs><linearGradient id="f" x1="0%" x2="50%" y1="0%" y2="50%"><stop offset="0%" stop-color="#3397DA"/><stop offset="100%" stop-color="#3397DA"/></linearGradient></defs><path fill="none" stroke="url(#f)" stroke-width="3" d="M811.104 565.449V853h286.532"/><path fill="none" stroke="url(#f)" stroke-width="1.5" d="M829.5 833h-2v8h2M833.5 833h2v8h-2"/><defs><linearGradient id="g" x1="100%" x2="50%" y1="100%" y2="50%"><stop offset="0%" stop-color="#3397DA"/><stop offset="100%" stop-color="#3397DA"/></linearGradient></defs><path fill="none" stroke="url(#g)" stroke-width="3" d="M786.625 1000.367H260.424V890.045"/><defs><linearGradient id="h" x1="0%" x2="50%" y1="0%" y2="50%"><stop offset="0%" stop-color="#3397DA"/><stop offset="100%" stop-color="#3397DA"/></linearGradient></defs><path fill="none" stroke="url(#h)" stroke-width="3" d="M734.452 376.609v191.269h32.046"/><path fill="#FFFFFF" stroke="#3397DA" stroke-width="3" d="M480.214 268.609h508.477v78H480.214z"/><path fill="#3397da" stroke="#3397da" d="M481.214 293.609h508.477"/><path fill="none" stroke="#3397DA" stroke-width="3" d="M480.214 268.609h508.477v78H480.214z"/><text x="490.214" y="286.609" style="font:700 16px 'Lucida Console',monospace" fill="#000000">DeclarationHeader</text><text x="490.214" y="310.609" style="font:500 14px 'Lucida Console',monospace" fill="#000000">declarantAgentParty:</text><text x="662.241" y="310.609" style="font:500 14px 'Lucida Console',monospace" fill="#547000">party.Organization.name(Text)</text><text x="490.214" y="324.609" style="font:500 14px 'Lucida Console',monospace" fill="#000000">identificationId:</text><text x="637.037" y="324.609" style="font:500 14px 'Lucida Console',monospace" fill="#C9A30B">docs.Declaration.identificationId(Text)</text><text x="490.214" y="338.609" style="font:500 14px 'Lucida Console',monospace" fill="#000000">issueDateTime:</text><text x="611.833" y="338.609" style="font:500 14px 'Lucida Console',monospace" fill="#19BB98">Date</text><path fill="#3397da" stroke="#EEEEEE" stroke-width="3" d="M734.452 340.609l-12 22 12-2h0l12 2-12-22"/><path fill="#3397da" stroke="#EEEEEE" stroke-width="3" d="M734.452 340.609l-12 22 12-2h0l12 2-12-22"/><path fill="#3397da" stroke="#3397da" stroke-width="3" d="M734.452 352.609v25.5"/><path fill="#FFFFFF" stroke="#3397DA" stroke-width="3" d="M454.253 456.878h624.49v190h-624.49z"/><path fill="#3397da" stroke="#3397da" d="M455.253 481.878h624.49"/><path fill="none" stroke="#3397DA" stroke-width="3" d="M454.253 456.878h624.49v190h-624.49z"/><text x="464.253" y="474.878" style="font:700 16px 'Lucida Console',monospace" fill="#000000">ExportDeclaration</text><text x="464.253" y="498.878" style="font:500 14px 'Lucida Console',monospace" fill="#000000">sender:</text><text x="527.062" y="498.878" style="font:500 14px 'Lucida Console',monospace" fill="#3397DA">SenderDetails</text><text x="464.253" y="512.878" style="font:500 14px 'Lucida Console',monospace" fill="#000000">expectedDateOfExport:</text><text x="644.682" y="512.878" style="font:500 14px 'Lucida Console',monospace" fill="#547000">shipment.Consignment.exportExitDateTime(Text)</text><text x="464.253" y="526.878" style="font:500 14px 'Lucida Console',monospace" fill="#000000">warehouseId:</text><text x="569.069" y="526.878" style="font:500 14px 'Lucida Console',monospace" fill="#547000">places.Location.identificationId(Text)</text><text x="464.253" y="540.878" style="font:500 14px 'Lucida Console',monospace" fill="#000000">branchId:</text><text x="543.865" y="540.878" style="font:500 14px 'Lucida Console',monospace" fill="#547000">places.Location.identificationId(Text)</text><text x="464.253" y="554.878" style="font:500 14px 'Lucida Console',monospace" fill="#000000">customableExciseIndicator:</text><text x="686.688" y="554.878" style="font:500 14px 'Lucida Console',monospace" fill="#19BB98">Indicator</text><text x="464.253" y="568.878" style="font:500 14px 'Lucida Console',monospace" fill="#000000">goodsOwner:</text><text x="560.668" y="568.878" style="font:500 14px 'Lucida Console',monospace" fill="#3397DA">PartyDetails</text><text x="464.253" y="582.878" style="font:500 14px 'Lucida Console',monospace" fill="#000000">confirmingExportType:</text><text x="644.682" y="582.878" style="font:500 14px 'Lucida Console',monospace" fill="#547000">product.Product.regulationConformityId(Text)</text><text x="464.253" y="596.878" style="font:500 14px 'Lucida Console',monospace" fill="#000000">transport:</text><text x="552.267" y="596.878" style="font:500 14px 'Lucida Console',monospace" fill="#2ECB70">TransportDetails</text><text x="464.253" y="610.878" style="font:500 14px 'Lucida Console',monospace" fill="#000000">goodsDetails:</text><text x="577.471" y="610.878" style="font:500 14px 'Lucida Console',monospace" fill="#2ECB70">GoodsDetail</text><text x="464.253" y="624.878" style="font:500 14px 'Lucida Console',monospace" fill="#000000">invoiceDetails:</text><text x="594.273" y="624.878" style="font:500 14px 'Lucida Console',monospace" fill="#2ECB70">InvoiceDetail</text><text x="464.253" y="638.878" style="font:500 14px 'Lucida Console',monospace" fill="#000000">theItems:</text><text x="543.865" y="638.878" style="font:500 14px 'Lucida Console',monospace" fill="#3397DA">ItemDetails[]</text><path fill="#FFFFFF" stroke="#3397DA" stroke-width="3" d="M850 800h495.272v106H850z"/><path fill="#3397da" stroke="#3397da" d="M851 825h495.272"/><path fill="none" stroke="#3397DA" stroke-width="3" d="M850 800h495.272v106H850z"/><text x="860" y="818" style="font:700 16px 'Lucida Console',monospace" fill="#000000">ItemDetails</text><text x="860" y="842" style="font:500 14px 'Lucida Console',monospace" fill="#000000">globalId:</text><text x="939.612" y="842" style="font:500 14px 'Lucida Console',monospace" fill="#C9A30B">product.Product.globalIdentificationId(Text)</text><text x="860" y="856" style="font:500 14px 'Lucida Console',monospace" fill="#000000">description:</text><text x="964.816" y="856" style="font:500 14px 'Lucida Console',monospace" fill="#547000">product.Product.description(Text)</text><text x="860" y="870" style="font:500 14px 'Lucida Console',monospace" fill="#000000">weight:</text><text x="922.81" y="870" style="font:500 14px 'Lucida Console',monospace" fill="#547000">product.Product.grossWeightMeasure(Text)</text><text x="860" y="884" style="font:500 14px 'Lucida Console',monospace" fill="#000000">unitValue:</text><text x="948.014" y="884" style="font:500 14px 'Lucida Console',monospace" fill="#547000">accounting.Price.unitAmount(Text)</text><text x="860" y="898" style="font:500 14px 'Lucida Console',monospace" fill="#000000">quantity:</text><text x="939.612" y="898" style="font:500 14px 'Lucida Console',monospace" fill="#547000">shipment.Consignment.packageQuantity(Text)</text><path fill="#FFFFFF" stroke="#2ECB70" stroke-width="3" d="M1100 700h609.293v78H1100z"/><path fill="#2ecb70" stroke="#2ecb70" d="M1101 725h609.293"/><path fill="none" stroke="#2ECB70" stroke-width="3" d="M1100 700h609.293v78H1100z"/><text x="1110" y="718" style="font:700 16px 'Lucida Console',monospace" fill="#000000">InvoiceDetail</text><text x="1110" y="742" style="font:500 14px 'Lucida Console',monospace" fill="#000000">currencyCode:</text><text x="1223.218" y="742" style="font:500 14px 'Lucida Console',monospace" fill="#547000">accounting.CurrencyExchange.sourceCurrencyCode(Text)</text><text x="1110" y="756" style="font:500 14px 'Lucida Console',monospace" fill="#000000">FOBCurrencyCode:</text><text x="1248.422" y="756" style="font:500 14px 'Lucida Console',monospace" fill="#547000">accounting.CurrencyExchange.sourceCurrencyCode(Text)</text><text x="1110" y="770" style="font:500 14px 'Lucida Console',monospace" fill="#000000">totalFOBValue:</text><text x="1231.619" y="770" style="font:500 14px 'Lucida Console',monospace" fill="#547000">shipment.Consignment.totalChargeAmount(Text)</text><path fill="#FFFFFF" stroke="#2ECB70" stroke-width="3" d="M150 700h521.279v78H150z"/><path fill="#2ecb70" stroke="#2ecb70" d="M151 725h521.28"/><path fill="none" stroke="#2ECB70" stroke-width="3" d="M150 700h521.279v78H150z"/><text x="160" y="718" style="font:700 16px 'Lucida Console',monospace" fill="#000000">GoodsDetail</text><text x="160" y="742" style="font:500 14px 'Lucida Console',monospace" fill="#000000">exportGoodsType:</text><text x="298.422" y="742" style="font:500 14px 'Lucida Console',monospace" fill="#547000">product.Product.typeCode(Text)</text><text x="160" y="756" style="font:500 14px 'Lucida Console',monospace" fill="#000000">totalPackages:</text><text x="281.619" y="756" style="font:500 14px 'Lucida Console',monospace" fill="#547000">shipment.Consignment.packageQuantity(Text)</text><text x="160" y="770" style="font:500 14px 'Lucida Console',monospace" fill="#000000">totalContainers:</text><text x="298.422" y="770" style="font:500 14px 'Lucida Console',monospace" fill="#547000">shipment.Consignment.packageQuantity(Text)</text><path fill="#FFFFFF" stroke="#2ECB70" stroke-width="3" d="M1100 300h634.497v162H1100z"/><path fill="#2ecb70" stroke="#2ecb70" d="M1101 325h634.497"/><path fill="none" stroke="#2ECB70" stroke-width="3" d="M1100 300h634.497v162H1100z"/><text x="1110" y="318" style="font:700 16px 'Lucida Console',monospace" fill="#000000">TransportDetails</text><text x="1110" y="342" style="font:500 14px 'Lucida Console',monospace" fill="#000000">consigneeName:</text><text x="1231.619" y="342" style="font:500 14px 'Lucida Console',monospace" fill="#547000">party.Party.name(Text)</text><text x="1110" y="356" style="font:500 14px 'Lucida Console',monospace" fill="#000000">consigneeCity:</text><text x="1231.619" y="356" style="font:500 14px 'Lucida Console',monospace" fill="#547000">places.Address.cityName(Text)</text><text x="1110" y="370" style="font:500 14px 'Lucida Console',monospace" fill="#000000">portOfLoading:</text><text x="1231.619" y="370" style="font:500 14px 'Lucida Console',monospace" fill="#547000">places.Location.name(Text)</text><text x="1110" y="384" style="font:500 14px 'Lucida Console',monospace" fill="#000000">firstPortOfDischarge:</text><text x="1290.429" y="384" style="font:500 14px 'Lucida Console',monospace" fill="#547000">places.Location.name(Text)</text><text x="1110" y="398" style="font:500 14px 'Lucida Console',monospace" fill="#000000">finalDestinationCountryCode:</text><text x="1349.238" y="398" style="font:500 14px 'Lucida Console',monospace" fill="#547000">places.Country.identificationId(Text)</text><text x="1110" y="412" style="font:500 14px 'Lucida Console',monospace" fill="#000000">modeOfTransport:</text><text x="1248.422" y="412" style="font:500 14px 'Lucida Console',monospace" fill="#547000">shipment.TransportMeans.type(Text)</text><text x="1110" y="426" style="font:500 14px 'Lucida Console',monospace" fill="#000000">vesselId:</text><text x="1189.612" y="426" style="font:500 14px 'Lucida Console',monospace" fill="#547000">shipment.TransportMeans.identificationId(Text)</text><text x="1110" y="440" style="font:500 14px 'Lucida Console',monospace" fill="#000000">voyageNumber:</text><text x="1223.218" y="440" style="font:500 14px 'Lucida Console',monospace" fill="#547000">shipment.TransportMovement.scheduledIdentificationId(Text)</text><text x="1110" y="454" style="font:500 14px 'Lucida Console',monospace" fill="#000000">flightNumber:</text><text x="1223.218" y="454" style="font:500 14px 'Lucida Console',monospace" fill="#547000">shipment.TransportMovement.scheduledIdentificationId(Text)</text><path fill="#FFFFFF" stroke="#3397DA" stroke-width="3" d="M404.165 968.367h764.919v64H404.165z"/><path fill="#3397da" stroke="#3397da" d="M405.165 993.367h764.92"/><path fill="none" stroke="#3397DA" stroke-width="3" d="M404.165 968.367h764.919v64H404.165z"/><text x="414.165" y="986.367" style="font:700 16px 'Lucida Console',monospace" fill="#000000">SenderDetails</text><text x="414.165" y="1010.367" style="font:500 14px 'Lucida Console',monospace" fill="#000000">partyDetails:</text><text x="527.383" y="1010.367" style="font:500 14px 'Lucida Console',monospace" fill="#3397DA">PartyDetails</text><text x="414.165" y="1024.367" style="font:500 14px 'Lucida Console',monospace" fill="#000000">senderReference:</text><text x="552.587" y="1024.367" style="font:500 14px 'Lucida Console',monospace" fill="#C9A30B">activity.TradeTransaction.senderRecipientSequenceIdentificationId(Text)</text><path fill="#FFFFFF" stroke="#3397DA" stroke-width="3" d="M13.721 856.712h370.055v50H13.721z"/><path fill="#3397da" stroke="#3397da" d="M14.72 881.712h370.056"/><path fill="none" stroke="#3397DA" stroke-width="3" d="M13.721 856.712h370.055v50H13.721z"/><text x="23.721" y="874.712" style="font:700 16px 'Lucida Console',monospace" fill="#000000">PartyDetails</text><text x="23.721" y="898.712" style="font:500 14px 'Lucida Console',monospace" fill="#000000">id:</text><text x="52.925" y="898.712" style="font:500 14px 'Lucida Console',monospace" fill="#C9A30B">party.Party.bEIIdentificationId(Text)</text></svg>