<svg xmlns="http://www.w3.org/2000/svg" viewBox="-205.027 -52 1755.572 816.759"><rect width="1000%" height="1000%" x="-500%" y="-500%" fill="#EEEEEE"/><path fill="none" stroke="#EEEEEE" stroke-width="8" d="M523.143 230.697h0V692.76h64.733"/><defs><linearGradient id="a" x1="0%" x2="50%" y1="0%" y2="50%"><stop offset="0%" stop-color="#3397DA"/><stop offset="100%" stop-color="#3397DA"/></linearGradient></defs><path fill="none" stroke="url(#a)" stroke-width="3" d="M523.143 230.697h0V692.76h64.733"/><path fill="none" stroke="#EEEEEE" stroke-width="8" d="M344.718 176.412h0-406.394V565.77"/><defs><linearGradient id="b" x1="0%" x2="50%" y1="0%" y2="50%"><stop offset="0%" stop-color="#3397DA"/><stop offset="100%" stop-color="#3397DA"/></linearGradient></defs><path fill="none" stroke="url(#b)" stroke-width="3" d="M344.718 176.412h0-406.394V565.77"/><path fill="none" stroke="#EEEEEE" stroke-width="8" d="M790.782 203.554H1218.5V73.391"/><defs><linearGradient id="c" x1="0%" x2="50%" y1="0%" y2="50%"><stop offset="0%" stop-color="#3397DA"/><stop offset="100%" stop-color="#2ECB70"/></linearGradient></defs><path fill="none" stroke="url(#c)" stroke-width="3" d="M790.782 203.554H1218.5V73.391"/><path fill="none" stroke="#EEEEEE" stroke-width="8" d="M433.93 203.554h0v227.837H211.891"/><defs><linearGradient id="d" x1="0%" x2="50%" y1="0%" y2="50%"><stop offset="0%" stop-color="#3397DA"/><stop offset="100%" stop-color="#2ECB70"/></linearGradient></defs><path fill="none" stroke="url(#d)" stroke-width="3" d="M433.93 203.554h0v227.837H211.891"/><path fill="none" stroke="#EEEEEE" stroke-width="8" d="M701.57 230.697h504.328v200.694"/><defs><linearGradient id="e" x1="0%" x2="50%" y1="0%" y2="50%"><stop offset="0%" stop-color="#3397DA"/><stop offset="100%" stop-color="#2ECB70"/></linearGradient></defs><path fill="none" stroke="url(#e)" stroke-width="3" d="M701.57 230.697h504.328v200.694"/><path fill="none" stroke="#EEEEEE" stroke-width="8" d="M612.356 257.84h0v287.551h286.532"/><defs><linearGradient id="f" x1="0%" x2="50%" y1="0%" y2="50%"><stop offset="0%" stop-color="#3397DA"/><stop offset="100%" stop-color="#3397DA"/></linearGradient></defs><path fill="none" stroke="url(#f)" stroke-width="3" d="M612.356 257.84h0v287.551h286.532"/><path fill="none" stroke="url(#f)" stroke-width="1.5" d="M630.752 525.391h-2v8h2M634.752 525.391h2v8h-2"/><path fill="none" stroke="#EEEEEE" stroke-width="8" d="M587.876 692.759h0-526.2V582.437"/><defs><linearGradient id="g" x1="100%" x2="50%" y1="100%" y2="50%"><stop offset="0%" stop-color="#3397DA"/><stop offset="100%" stop-color="#3397DA"/></linearGradient></defs><path fill="none" stroke="url(#g)" stroke-width="3" d="M587.876 692.759h0-526.2V582.437"/><path fill="none" stroke="#EEEEEE" stroke-width="8" d="M535.704 62h0v198.269h32.046"/><defs><linearGradient id="h" x1="0%" x2="50%" y1="0%" y2="50%"><stop offset="0%" stop-color="#3397DA"/><stop offset="100%" stop-color="#3397DA"/></linearGradient></defs><path fill="none" stroke="url(#h)" stroke-width="3" d="M535.704 62h0v198.269h32.046"/><path fill="#FFFFFF" stroke="#3397DA" stroke-width="3" d="M283.466-32h504.477v64H283.466z"/><path fill="#3397da" stroke="#3397da" d="M284.466-7h504.476"/><path fill="none" stroke="#3397DA" stroke-width="3" d="M283.466-32h504.477v64H283.466z"/><text x="293.466" y="-14" style="font:700 16px 'Lucida Console',monospace" fill="#000000">DeclarationHeader</text><text x="293.466" y="10" style="font:500 14px 'Lucida Console',monospace" fill="#000000">declarantAgentParty:</text><text x="465.493" y="10" style="font:500 14px 'Lucida Console',monospace" fill="#547000">party.Organization.name(Text)</text><text x="293.466" y="24" style="font:500 14px 'Lucida Console',monospace" fill="#000000">identificationId:</text><text x="440.289" y="24" style="font:500 14px 'Lucida Console',monospace" fill="#C9A30B">docs.Declaration.identificationId(Text)</text><path fill="#3397da" stroke="#EEEEEE" stroke-width="3" d="M535.704 26l-12 22 12-2h0l12 2-12-22"/><path fill="#3397da" stroke="#EEEEEE" stroke-width="3" d="M535.704 26l-12 22 12-2h0l12 2-12-22"/><path fill="#3397da" stroke="#3397da" stroke-width="3" d="M535.704 38v25.5"/><path fill="#FFFFFF" stroke="#3397DA" stroke-width="3" d="M255.505 149.269h624.49v190h-624.49z"/><path fill="#3397da" stroke="#3397da" d="M256.505 174.269h624.49"/><path fill="none" stroke="#3397DA" stroke-width="3" d="M255.505 149.269h624.49v190h-624.49z"/><text x="265.505" y="167.269" style="font:700 16px 'Lucida Console',monospace" fill="#000000">ExportDeclaration</text><text x="265.505" y="191.269" style="font:500 14px 'Lucida Console',monospace" fill="#000000">sender:</text><text x="328.314" y="191.269" style="font:500 14px 'Lucida Console',monospace" fill="#3397DA">SenderDetails</text><text x="265.505" y="205.269" style="font:500 14px 'Lucida Console',monospace" fill="#000000">expectedDateOfExport:</text><text x="445.933" y="205.269" style="font:500 14px 'Lucida Console',monospace" fill="#547000">shipment.Consignment.exportExitDateTime(Text)</text><text x="265.505" y="219.269" style="font:500 14px 'Lucida Console',monospace" fill="#000000">warehouseId:</text><text x="370.321" y="219.269" style="font:500 14px 'Lucida Console',monospace" fill="#547000">places.Location.identificationId(Text)</text><text x="265.505" y="233.269" style="font:500 14px 'Lucida Console',monospace" fill="#000000">branchId:</text><text x="345.117" y="233.269" style="font:500 14px 'Lucida Console',monospace" fill="#547000">places.Location.identificationId(Text)</text><text x="265.505" y="247.269" style="font:500 14px 'Lucida Console',monospace" fill="#000000">customableExciseIndicator:</text><text x="487.94" y="247.269" style="font:500 14px 'Lucida Console',monospace" fill="#19BB98">Indicator</text><text x="265.505" y="261.269" style="font:500 14px 'Lucida Console',monospace" fill="#000000">goodsOwner:</text><text x="361.92" y="261.269" style="font:500 14px 'Lucida Console',monospace" fill="#3397DA">PartyDetails</text><text x="265.505" y="275.269" style="font:500 14px 'Lucida Console',monospace" fill="#000000">confirmingExportType:</text><text x="445.933" y="275.269" style="font:500 14px 'Lucida Console',monospace" fill="#547000">product.Product.regulationConformityId(Text)</text><text x="265.505" y="289.269" style="font:500 14px 'Lucida Console',monospace" fill="#000000">transport:</text><text x="353.518" y="289.269" style="font:500 14px 'Lucida Console',monospace" fill="#2ECB70">TransportDetails</text><text x="265.505" y="303.269" style="font:500 14px 'Lucida Console',monospace" fill="#000000">goodsDetails:</text><text x="378.722" y="303.269" style="font:500 14px 'Lucida Console',monospace" fill="#2ECB70">GoodsDetail</text><text x="265.505" y="317.269" style="font:500 14px 'Lucida Console',monospace" fill="#000000">invoiceDetails:</text><text x="395.525" y="317.269" style="font:500 14px 'Lucida Console',monospace" fill="#2ECB70">InvoiceDetail</text><text x="265.505" y="331.269" style="font:500 14px 'Lucida Console',monospace" fill="#000000">theItems:</text><text x="345.117" y="331.269" style="font:500 14px 'Lucida Console',monospace" fill="#3397DA">ItemDetails[]</text><path fill="#FFFFFF" stroke="#3397DA" stroke-width="3" d="M651.252 492.391h495.272v106H651.252z"/><path fill="#3397da" stroke="#3397da" d="M652.252 517.391h495.272"/><path fill="none" stroke="#3397DA" stroke-width="3" d="M651.252 492.391h495.272v106H651.252z"/><text x="661.252" y="510.391" style="font:700 16px 'Lucida Console',monospace" fill="#000000">ItemDetails</text><text x="661.252" y="534.391" style="font:500 14px 'Lucida Console',monospace" fill="#000000">globalId:</text><text x="740.864" y="534.391" style="font:500 14px 'Lucida Console',monospace" fill="#C9A30B">product.Product.globalIdentificationId(Text)</text><text x="661.252" y="548.391" style="font:500 14px 'Lucida Console',monospace" fill="#000000">description:</text><text x="766.068" y="548.391" style="font:500 14px 'Lucida Console',monospace" fill="#547000">product.Product.description(Text)</text><text x="661.252" y="562.391" style="font:500 14px 'Lucida Console',monospace" fill="#000000">weight:</text><text x="724.061" y="562.391" style="font:500 14px 'Lucida Console',monospace" fill="#547000">product.Product.grossWeightMeasure(Text)</text><text x="661.252" y="576.391" style="font:500 14px 'Lucida Console',monospace" fill="#000000">unitValue:</text><text x="749.265" y="576.391" style="font:500 14px 'Lucida Console',monospace" fill="#547000">accounting.Price.unitAmount(Text)</text><text x="661.252" y="590.391" style="font:500 14px 'Lucida Console',monospace" fill="#000000">quantity:</text><text x="740.864" y="590.391" style="font:500 14px 'Lucida Console',monospace" fill="#547000">shipment.Consignment.packageQuantity(Text)</text><path fill="#FFFFFF" stroke="#2ECB70" stroke-width="3" d="M901.252 392.391h609.293v78H901.252z"/><path fill="#2ecb70" stroke="#2ecb70" d="M902.252 417.391h609.293"/><path fill="none" stroke="#2ECB70" stroke-width="3" d="M901.252 392.391h609.293v78H901.252z"/><text x="911.252" y="410.391" style="font:700 16px 'Lucida Console',monospace" fill="#000000">InvoiceDetail</text><text x="911.252" y="434.391" style="font:500 14px 'Lucida Console',monospace" fill="#000000">currencyCode:</text><text x="1024.47" y="434.391" style="font:500 14px 'Lucida Console',monospace" fill="#547000">accounting.CurrencyExchange.sourceCurrencyCode(Text)</text><text x="911.252" y="448.391" style="font:500 14px 'Lucida Console',monospace" fill="#000000">FOBCurrencyCode:</text><text x="1049.674" y="448.391" style="font:500 14px 'Lucida Console',monospace" fill="#547000">accounting.CurrencyExchange.sourceCurrencyCode(Text)</text><text x="911.252" y="462.391" style="font:500 14px 'Lucida Console',monospace" fill="#000000">totalFOBValue:</text><text x="1032.871" y="462.391" style="font:500 14px 'Lucida Console',monospace" fill="#547000">shipment.Consignment.totalChargeAmount(Text)</text><path fill="#FFFFFF" stroke="#2ECB70" stroke-width="3" d="M-48.748 392.391h521.279v78H-48.748z"/><path fill="#2ecb70" stroke="#2ecb70" d="M-47.748 417.391h521.28"/><path fill="none" stroke="#2ECB70" stroke-width="3" d="M-48.748 392.391h521.279v78H-48.748z"/><text x="-38.748" y="410.391" style="font:700 16px 'Lucida Console',monospace" fill="#000000">GoodsDetail</text><text x="-38.748" y="434.391" style="font:500 14px 'Lucida Console',monospace" fill="#000000">exportGoodsType:</text><text x="99.674" y="434.391" style="font:500 14px 'Lucida Console',monospace" fill="#547000">product.Product.typeCode(Text)</text><text x="-38.748" y="448.391" style="font:500 14px 'Lucida Console',monospace" fill="#000000">totalPackages:</text><text x="82.871" y="448.391" style="font:500 14px 'Lucida Console',monospace" fill="#547000">shipment.Consignment.packageQuantity(Text)</text><text x="-38.748" y="462.391" style="font:500 14px 'Lucida Console',monospace" fill="#000000">totalContainers:</text><text x="99.674" y="462.391" style="font:500 14px 'Lucida Console',monospace" fill="#547000">shipment.Consignment.packageQuantity(Text)</text><path fill="#FFFFFF" stroke="#2ECB70" stroke-width="3" d="M901.252-7.609h634.497v162H901.252z"/><path fill="#2ecb70" stroke="#2ecb70" d="M902.252 17.391h634.497"/><path fill="none" stroke="#2ECB70" stroke-width="3" d="M901.252-7.609h634.497v162H901.252z"/><text x="911.252" y="10.391" style="font:700 16px 'Lucida Console',monospace" fill="#000000">TransportDetails</text><text x="911.252" y="34.391" style="font:500 14px 'Lucida Console',monospace" fill="#000000">consigneeName:</text><text x="1032.871" y="34.391" style="font:500 14px 'Lucida Console',monospace" fill="#547000">party.Party.name(Text)</text><text x="911.252" y="48.391" style="font:500 14px 'Lucida Console',monospace" fill="#000000">consigneeCity:</text><text x="1032.871" y="48.391" style="font:500 14px 'Lucida Console',monospace" fill="#547000">places.Address.cityName(Text)</text><text x="911.252" y="62.391" style="font:500 14px 'Lucida Console',monospace" fill="#000000">portOfLoading:</text><text x="1032.871" y="62.391" style="font:500 14px 'Lucida Console',monospace" fill="#547000">places.Location.name(Text)</text><text x="911.252" y="76.391" style="font:500 14px 'Lucida Console',monospace" fill="#000000">firstPortOfDischarge:</text><text x="1091.68" y="76.391" style="font:500 14px 'Lucida Console',monospace" fill="#547000">places.Location.name(Text)</text><text x="911.252" y="90.391" style="font:500 14px 'Lucida Console',monospace" fill="#000000">finalDestinationCountryCode:</text><text x="1150.49" y="90.391" style="font:500 14px 'Lucida Console',monospace" fill="#547000">places.Country.identificationId(Text)</text><text x="911.252" y="104.391" style="font:500 14px 'Lucida Console',monospace" fill="#000000">modeOfTransport:</text><text x="1049.674" y="104.391" style="font:500 14px 'Lucida Console',monospace" fill="#547000">shipment.TransportMeans.type(Text)</text><text x="911.252" y="118.391" style="font:500 14px 'Lucida Console',monospace" fill="#000000">vesselId:</text><text x="990.864" y="118.391" style="font:500 14px 'Lucida Console',monospace" fill="#547000">shipment.TransportMeans.identificationId(Text)</text><text x="911.252" y="132.391" style="font:500 14px 'Lucida Console',monospace" fill="#000000">voyageNumber:</text><text x="1024.47" y="132.391" style="font:500 14px 'Lucida Console',monospace" fill="#547000">shipment.TransportMovement.scheduledIdentificationId(Text)</text><text x="911.252" y="146.391" style="font:500 14px 'Lucida Console',monospace" fill="#000000">flightNumber:</text><text x="1024.47" y="146.391" style="font:500 14px 'Lucida Console',monospace" fill="#547000">shipment.TransportMovement.scheduledIdentificationId(Text)</text><path fill="#FFFFFF" stroke="#3397DA" stroke-width="3" d="M205.417 660.759h764.919v64H205.417z"/><path fill="#3397da" stroke="#3397da" d="M206.417 685.759h764.919"/><path fill="none" stroke="#3397DA" stroke-width="3" d="M205.417 660.759h764.919v64H205.417z"/><text x="215.417" y="678.759" style="font:700 16px 'Lucida Console',monospace" fill="#000000">SenderDetails</text><text x="215.417" y="702.759" style="font:500 14px 'Lucida Console',monospace" fill="#000000">partyDetails:</text><text x="328.635" y="702.759" style="font:500 14px 'Lucida Console',monospace" fill="#3397DA">PartyDetails</text><text x="215.417" y="716.759" style="font:500 14px 'Lucida Console',monospace" fill="#000000">senderReference:</text><text x="353.839" y="716.759" style="font:500 14px 'Lucida Console',monospace" fill="#C9A30B">activity.TradeTransaction.senderRecipientSequenceIdentificationId(Text)</text><path fill="#FFFFFF" stroke="#3397DA" stroke-width="3" d="M-185.027 549.103h370.055v50h-370.055z"/><path fill="#3397da" stroke="#3397da" d="M-184.027 574.103h370.054"/><path fill="none" stroke="#3397DA" stroke-width="3" d="M-185.027 549.103h370.055v50h-370.055z"/><text x="-175.027" y="567.103" style="font:700 16px 'Lucida Console',monospace" fill="#000000">PartyDetails</text><text x="-175.027" y="591.103" style="font:500 14px 'Lucida Console',monospace" fill="#000000">id:</text><text x="-145.823" y="591.103" style="font:500 14px 'Lucida Console',monospace" fill="#C9A30B">party.Party.bEIIdentificationId(Text)</text></svg>